<svg width="199" height="202" viewBox="0 0 199 202" fill="none" xmlns="http://www.w3.org/2000/svg">
<path d="M198.98 100.875V148.005C198.98 149.655 198.31 151.205 197.17 152.345L164.33 185.175C160.34 189.175 153.52 186.345 153.52 180.705V146.015C153.52 145.005 153.26 144.085 152.85 143.225C152.55 142.615 152.15 142.075 151.67 141.595C150.58 140.525 149.07 139.875 147.41 139.875H111.83C109.37 139.875 107.47 138.555 106.47 136.735C105.21 134.495 105.34 131.515 107.49 129.385L139.68 96.3447C140.81 95.2047 142.31 94.5747 143.93 94.5347H192.64C194.25 94.5347 195.72 95.1447 196.84 96.1247C198.15 97.2847 198.98 98.9847 198.98 100.875Z" fill="#9155FD"/>
<path d="M187.32 67.8748H153.47C151.57 67.8748 149.81 66.9248 148.68 65.3948C137.89 50.8348 120.64 41.3148 101.19 41.1648C69.7499 40.9048 42.9999 65.9648 41.2399 97.3648C39.9299 120.925 52.3999 141.765 71.3199 152.535C76.7899 155.655 82.8099 157.945 89.1899 159.195C91.2099 159.585 93.2499 159.885 95.3399 160.075H121.99C124.85 160.075 127.16 162.385 127.16 165.245V196.135C127.16 198.995 124.85 201.305 121.99 201.305H95.3399C95.0299 201.305 94.7399 201.305 94.4399 201.285C93.8499 201.245 93.2399 201.205 92.6499 201.165C92.6099 201.165 92.5799 201.165 92.5399 201.165C75.1899 199.775 59.0699 193.975 45.3199 184.905C39.6199 181.145 34.3299 176.825 29.5099 172.005C29.3599 171.855 29.2099 171.705 29.0599 171.545C9.66991 151.885 -1.71009 124.305 0.209913 94.1248C3.41991 44.0148 44.0899 3.36479 94.2099 0.204788C124.58 -1.70521 152.31 9.87479 171.94 29.5248C180.6 38.1848 187.68 48.3848 192.74 59.7048C194.45 63.5548 191.53 67.8848 187.31 67.8848L187.32 67.8748Z" fill="#9155FD"/>
<g opacity="0.08">
<path d="M127.05 165.165V166.215L92.6497 201.145C75.2997 199.755 58.9597 193.885 45.2097 184.815C39.5097 181.055 34.2197 176.735 29.3997 171.915C29.2497 171.765 29.0997 171.615 28.9497 171.455L71.2097 152.455C76.6797 155.575 82.6997 157.865 89.0797 159.115C91.0997 159.505 93.1397 159.805 95.2297 159.995H121.88C124.74 159.995 127.05 162.305 127.05 165.165Z" fill="black"/>
<path d="M196.72 96.0649L151.56 141.535C150.47 140.465 148.96 139.815 147.3 139.815H111.72C109.26 139.815 107.36 138.495 106.36 136.675L196.73 96.0749L196.72 96.0649Z" fill="black"/>
</g>
<g opacity="0.08">
<path d="M127.05 165.165V166.215L92.65 201.145C75.3 199.755 58.96 193.885 45.21 184.815L89.08 159.125C91.1 159.515 93.14 159.815 95.23 160.005H121.88C124.74 160.005 127.05 162.315 127.05 165.175V165.165Z" fill="black"/>
<path d="M196.72 96.0649L151.56 141.535C150.47 140.465 148.96 139.815 147.3 139.815H122.05L196.73 96.0649H196.72Z" fill="black"/>
</g>
<g opacity="0.38">
<path d="M198.97 100.875V148.005C198.97 149.655 198.3 151.205 197.16 152.345L164.33 185.175C160.34 189.165 153.52 186.335 153.52 180.695V146.005C153.52 144.995 153.27 144.075 152.85 143.215C152.53 142.555 152.09 141.975 151.56 141.475L196.83 96.1147C198.14 97.2747 198.97 98.9747 198.97 100.865V100.875Z" fill="white"/>
</g>
<path d="M127.16 166.515V196.115C127.16 198.975 124.85 201.285 121.99 201.285H95.3399C95.0399 201.285 94.7399 201.285 94.4399 201.265C93.8499 201.225 93.2399 201.185 92.6499 201.145L127.05 166.215L127.16 166.515Z" fill="black"/>
</svg>
